<svg xmlns="http://www.w3.org/2000/svg" width="1200" height="320" viewBox="0 0 1200 320">
  <defs>
    <linearGradient id="g" x1="0" y1="0" x2="1" y2="0">
      <stop offset="0" stop-color="#0f766e"/>
      <stop offset="1" stop-color="#2563eb"/>
    </linearGradient>
    <filter id="s" x="-20%" y="-20%" width="140%" height="140%">
      <feDropShadow dx="0" dy="8" stdDeviation="10" flood-color="#0f172a" flood-opacity="0.18"/>
    </filter>
  </defs>
  <rect width="1200" height="320" rx="28" fill="url(#g)"/>
  <g opacity="0.18">
    <path d="M0 220 C 220 160, 420 280, 620 210 C 820 140, 980 240, 1200 180 L1200 320 L0 320 Z" fill="#ffffff"/>
    <path d="M0 260 C 220 200, 420 320, 620 250 C 820 180, 980 280, 1200 220 L1200 320 L0 320 Z" fill="#ffffff"/>
  </g>

  <!-- Medical cross -->
  <g filter="url(#s)" transform="translate(88 72)">
    <rect x="84" y="0" width="56" height="200" rx="18" fill="#ffffff" opacity="0.92"/>
    <rect x="12" y="72" width="200" height="56" rx="18" fill="#ffffff" opacity="0.92"/>
  </g>

  <!-- ECG line -->
  <path d="M420 185 L470 185 L495 140 L520 230 L550 175 L570 185 L640 185
           L665 155 L690 205 L715 165 L740 185 L820 185"
        fill="none" stroke="#ffffff" stroke-width="6" stroke-linecap="round" stroke-linejoin="round" opacity="0.9"/>

  <text x="420" y="115" font-family="Arial, Helvetica, sans-serif" font-size="34" font-weight="700" fill="#ffffff">
    Khoa Y – Trường Cao đẳng Y tế Phú Thọ
  </text>
  <text x="420" y="155" font-family="Arial, Helvetica, sans-serif" font-size="18" fill="#ffffff" opacity="0.92">
    Phần mềm Học tập • Thi thử • Tài liệu • AI hỗ trợ
  </text>
</svg>
